<?xml version="1.0" encoding="UTF-8" standalone="no"?>
<!-- Created with Inkscape (http://www.inkscape.org/) -->

<svg
   version="1.1"
   id="svg2"
   width="320"
   height="320.00003"
   viewBox="0 0 320 320.00003"
   sodipodi:docname="logo.svg"
   inkscape:version="1.2.2 (732a01da63, 2022-12-09)"
   xmlns:inkscape="http://www.inkscape.org/namespaces/inkscape"
   xmlns:sodipodi="http://sodipodi.sourceforge.net/DTD/sodipodi-0.dtd"
   xmlns="http://www.w3.org/2000/svg"
   xmlns:svg="http://www.w3.org/2000/svg">
  <defs
     id="defs6" />
  <sodipodi:namedview
     id="namedview4"
     pagecolor="#ffffff"
     bordercolor="#000000"
     borderopacity="0.25"
     inkscape:showpageshadow="2"
     inkscape:pageopacity="0.0"
     inkscape:pagecheckerboard="0"
     inkscape:deskcolor="#d1d1d1"
     showgrid="false"
     inkscape:zoom="2.0058594"
     inkscape:cx="103.19766"
     inkscape:cy="148.06621"
     inkscape:window-width="2560"
     inkscape:window-height="1377"
     inkscape:window-x="-8"
     inkscape:window-y="-8"
     inkscape:window-maximized="1"
     inkscape:current-layer="layer1" />
  <g
     inkscape:groupmode="layer"
     id="layer3"
     inkscape:label="Image 3"
     style="display:none;fill:#ff2218;fill-opacity:1"
     transform="translate(-200,-200)">
    <circle
       style="display:inline;fill:#ff2218;fill-opacity:1;fill-rule:evenodd;stroke:none;stroke-width:9.87396;stroke-linejoin:bevel;stroke-opacity:1"
       id="path3146"
       r="160"
       cy="360"
       cx="360" />
  </g>
  <g
     inkscape:groupmode="layer"
     id="layer1"
     inkscape:label="Image 1"
     style="display:inline"
     transform="translate(-200,-200)">
    <g
       id="g41280"
       style="display:inline">
      <path
         id="path346"
         style="display:inline;fill:#2a373c;fill-opacity:1;stroke:none;stroke-width:2.51984;stroke-linejoin:bevel"
         d="M 359.93552,200 A 160.06448,160.424 0 0 0 200,358.10732 c 17.46245,-18.47678 46.18352,-27.92777 85.21987,-29.9992 0.0417,-0.002 0.10261,0.002 0.1446,0 12.838,-58.20964 37.98227,-102.73968 80.49532,-127.96321 A 160.06448,160.424 0 0 0 359.93552,200 Z m 44.41438,6.33902 c -59.03805,2.6403 -88.58962,73.70943 -100.91175,114.37847 -0.67579,2.23045 -1.32465,4.79984 -1.94609,7.57471 0.36137,0.008 0.81727,0.0264 1.16257,0.0313 36.67427,0.53163 78.49361,10.17858 123.36611,29.8308 l 1.67646,-13.89414 33.97071,38.84093 -51.18859,-1.5216 10.02943,-11.02132 c -43.82069,-19.19158 -85.7543,-27.092 -121.60954,-27.61008 -7.61593,54.99207 -1.41365,159.89823 72.84967,177.05193 a 160.06448,160.424 0 0 0 128.10628,-82.41509 c -16.97836,11.43375 -56.99903,26.27524 -96.3982,26.63484 l 2.95627,13.99011 -44.29909,-23.00024 44.85009,-19.0014 -2.78042,14.24077 c 44.57727,-2.28187 95.4256,-13.1309 113.05727,-60.9482 A 160.06448,160.424 0 0 0 520,360.42397 160.06448,160.424 0 0 0 404.3499,206.33904 Z M 282.34371,343.23011 c -0.15823,0.008 -0.32271,0.009 -0.48065,0.0177 -36.29686,1.92606 -75.08451,15.12495 -79.42458,43.89922 a 160.06448,160.424 0 0 0 124.1887,129.77072 c -39.9799,-34.14846 -49.80757,-95.62043 -44.88331,-170.45832 0.18547,-1.09285 0.40674,-2.14488 0.59984,-3.22925 z" />
    </g>
  </g>
</svg>
