<?xml version="1.0" encoding="UTF-8" standalone="no"?>
<!-- Created with Inkscape (http://www.inkscape.org/) -->

<svg
   version="1.1"
   id="svg2"
   width="64"
   height="63.999611"
   viewBox="0 0 64 63.999611"
   sodipodi:docname="logo.svg"
   inkscape:version="1.2.2 (732a01da63, 2022-12-09)"
   xmlns:inkscape="http://www.inkscape.org/namespaces/inkscape"
   xmlns:sodipodi="http://sodipodi.sourceforge.net/DTD/sodipodi-0.dtd"
   xmlns="http://www.w3.org/2000/svg"
   xmlns:svg="http://www.w3.org/2000/svg">
  <defs
     id="defs6">
    <marker
       style="overflow:visible"
       id="Arrow2"
       refX="0"
       refY="0"
       orient="-131"
       inkscape:stockid="Arrow2"
       markerWidth="3"
       markerHeight="3"
       viewBox="0 0 7.7 5.6"
       inkscape:isstock="true"
       inkscape:collect="always"
       preserveAspectRatio="none"
       markerUnits="strokeWidth">
      <path
         transform="scale(0.7)"
         d="M -2,-4 9,0 -2,4 c 2,-2.33 2,-5.66 0,-8 z"
         style="fill:context-stroke;fill-rule:evenodd;stroke:none"
         id="arrow2L" />
    </marker>
    <marker
       style="overflow:visible"
       id="marker13469"
       refX="0"
       refY="0"
       orient="31"
       inkscape:stockid="Arrow2"
       markerWidth="3"
       markerHeight="3"
       viewBox="0 0 7.7 5.6"
       inkscape:isstock="true"
       inkscape:collect="always"
       preserveAspectRatio="none"
       markerUnits="strokeWidth">
      <path
         transform="scale(0.7)"
         d="M -2,-4 9,0 -2,4 c 2,-2.33 2,-5.66 0,-8 z"
         style="fill:context-stroke;fill-rule:evenodd;stroke:none"
         id="path13467" />
    </marker>
  </defs>
  <sodipodi:namedview
     id="namedview4"
     pagecolor="#ffffff"
     bordercolor="#000000"
     borderopacity="0.25"
     inkscape:showpageshadow="2"
     inkscape:pageopacity="0.0"
     inkscape:pagecheckerboard="0"
     inkscape:deskcolor="#d1d1d1"
     showgrid="true"
     inkscape:zoom="16"
     inkscape:cx="23.9375"
     inkscape:cy="33.6875"
     inkscape:window-width="2560"
     inkscape:window-height="1377"
     inkscape:window-x="-8"
     inkscape:window-y="-8"
     inkscape:window-maximized="1"
     inkscape:current-layer="layer2">
    <inkscape:grid
       type="xygrid"
       id="grid171"
       originx="-638.49448"
       originy="-381.04852" />
  </sodipodi:namedview>
  <g
     inkscape:groupmode="layer"
     id="layer2"
     inkscape:label="logo"
     transform="translate(-300.00001,-200)">
    <path
       style="display:inline;fill:#3d6565;fill-opacity:1;stroke:none;stroke-width:2.63415;stroke-linecap:butt;stroke-linejoin:bevel;stroke-dasharray:none;stroke-dashoffset:0;stroke-opacity:1"
       d="m 336.69286,202.7482 c -7.04794,4.04771 -12.4921,8.65512 -15.67505,20.03314 -4.14624,14.82143 -0.0834,35.54204 12.13314,39.47823 l -6.58971,-0.22679 c -13.8593,-13.94456 -13.63156,-48.39574 6.17748,-59.73319 z"
       id="path24029"
       sodipodi:nodetypes="cscccc"
       inkscape:label="meridian" />
    <path
       style="display:inline;fill:#5d9a9a;fill-opacity:1;stroke:none;stroke-width:2.63415;stroke-linecap:butt;stroke-linejoin:bevel;stroke-dasharray:none;stroke-dashoffset:0;stroke-opacity:1"
       d="m 362.30034,233.07019 c -0.81972,5.72705 -2.13472,14.28187 -22.22696,15.60065 l 0.79758,-2.48487 -8.21046,3.42257 7.92897,4.26643 -0.70377,-2.57861 c 4.75418,-0.6907 10.35754,0.14704 19.82179,-6.02959 2.37488,-3.40513 3.72212,-6.69047 2.59285,-12.19658 z"
       id="path15423"
       sodipodi:nodetypes="cccccccc"
       inkscape:label="supRight" />
    <path
       style="display:inline;fill:none;fill-opacity:0.295359;stroke:#5c9999;stroke-width:2.63415;stroke-linecap:butt;stroke-linejoin:bevel;stroke-dasharray:none;stroke-dashoffset:0;stroke-opacity:1;marker-end:url(#Arrow2)"
       id="path9133"
       sodipodi:type="arc"
       sodipodi:cx="332.00369"
       sodipodi:cy="232.00381"
       sodipodi:rx="30.685852"
       sodipodi:ry="30.685572"
       sodipodi:start="5.5704092"
       sodipodi:end="2.3263806"
       sodipodi:open="true"
       sodipodi:arc-type="arc"
       d="m 355.21906,211.9374 a 30.685852,30.685572 0 0 1 -1.98656,42.22381 30.685852,30.685572 0 0 1 -42.27053,0.17774"
       inkscape:label="mainRight" />
    <path
       style="display:inline;fill:#3e6767;fill-opacity:1;stroke:#303030;stroke-width:0.188153;stroke-opacity:0.0632911"
       d="m 301.57048,231.65762 c 11.0677,-9.34429 29.40758,-6.19242 42.86622,-0.1932 l 0.46912,-2.15668 6.2566,6.87251 -9.67398,-0.4025 2.00987,-1.78161 c -4.17029,-2.83766 -13.53829,-5.33248 -22.43725,-5.53074 -9.56175,-0.21302 -18.70876,2.36929 -18.81427,9.63194 z"
       id="path3916"
       sodipodi:nodetypes="ccccccscc"
       inkscape:label="supLeft" />
    <path
       style="display:inline;fill:none;fill-opacity:1;fill-rule:nonzero;stroke:#3d6666;stroke-width:2.63415;stroke-linecap:butt;stroke-linejoin:bevel;stroke-dasharray:none;stroke-dashoffset:0;stroke-opacity:1;marker-end:url(#marker13469)"
       id="path9133-4"
       sodipodi:type="arc"
       sodipodi:cx="332.00241"
       sodipodi:cy="232.00151"
       sodipodi:rx="30.685852"
       sodipodi:ry="30.685572"
       sodipodi:start="2.7193443"
       sodipodi:end="5.1843332"
       sodipodi:open="true"
       sodipodi:arc-type="arc"
       d="m 304.0117,244.57684 a 30.685852,30.685572 0 0 1 6.83833,-34.8057 30.685852,30.685572 0 0 1 35.10275,-5.10084"
       inkscape:label="mainLeft" />
    <path
       style="display:none;fill:#fdca00;fill-opacity:1;stroke:none;stroke-width:2.63415;stroke-linecap:butt;stroke-linejoin:bevel;stroke-dasharray:none;stroke-dashoffset:0;stroke-opacity:1"
       d="m 342.56786,203.9357 c -26.75503,-4.51896 -32.87097,58.46747 -4.66691,57.82387 -3.83963,0.49976 -7.33981,2.89672 -11.33971,0.27321 -13.8593,-13.94456 -13.69406,-47.08324 6.05248,-59.54569 -2.57339,-0.23274 -5.64207,0.0677 -9.44278,0.68208 5.20412,-1.72846 13.80611,-3.74385 19.39692,0.76653 z"
       id="path15965"
       sodipodi:nodetypes="cccccc"
       inkscape:label="meridian" />
  </g>
</svg>
