<?xml version="1.0" encoding="UTF-8"?>
<!DOCTYPE svg PUBLIC "-//W3C//DTD SVG 1.1//EN" "http://www.w3.org/Graphics/SVG/1.1/DTD/svg11.dtd">
<svg xmlns="http://www.w3.org/2000/svg" xmlns:xlink="http://www.w3.org/1999/xlink" version="1.1" width="86px" height="84px" viewBox="-0.5 -0.5 86 84"><defs/><g><g data-cell-id="0"><g data-cell-id="1"><g data-cell-id="jF6yLMwPb9LCzAgC0iPM-30"/><g data-cell-id="jF6yLMwPb9LCzAgC0iPM-29"/><g data-cell-id="jF6yLMwPb9LCzAgC0iPM-11"/><g data-cell-id="jF6yLMwPb9LCzAgC0iPM-5"/><g data-cell-id="jF6yLMwPb9LCzAgC0iPM-9"/><g data-cell-id="jF6yLMwPb9LCzAgC0iPM-1"/><g data-cell-id="jF6yLMwPb9LCzAgC0iPM-10"/><g data-cell-id="jF6yLMwPb9LCzAgC0iPM-12"/><g data-cell-id="jF6yLMwPb9LCzAgC0iPM-14"><g><path d="M 14.82 30.2 C 20.98 25.55 28.77 27.63 33.11 35.08 C 37.45 42.53 37.03 53.1 32.12 59.9 C 27.21 66.7 19.31 67.67 13.55 62.18" fill="none" stroke="#859900" stroke-width="6" stroke-miterlimit="10" transform="rotate(-13.4,21.85,46.73)" pointer-events="all"/></g></g><g data-cell-id="jF6yLMwPb9LCzAgC0iPM-17"><g><path d="M 48.6 39.18 C 45.87 29.97 49.54 19.7 56.83 16.17 C 64.13 12.63 72.32 17.15 75.2 26.29 C 78.09 35.43 74.58 45.79 67.35 49.51" fill="none" stroke="#cb4b16" stroke-width="6" stroke-miterlimit="10" transform="rotate(-20,61.96,32.9)" pointer-events="all"/></g></g><g data-cell-id="jF6yLMwPb9LCzAgC0iPM-15"><g><path d="M 37.6 35.51 C 43.68 34.47 49.53 39.38 52.22 47.76 C 54.91 56.14 53.86 66.19 49.6 72.88" fill="none" stroke="#2aa198" stroke-width="6" stroke-miterlimit="10" transform="rotate(-105,39.2,57.47)" pointer-events="all"/></g></g><g data-cell-id="jF6yLMwPb9LCzAgC0iPM-23"><g><ellipse cx="51.5" cy="43" rx="3" ry="3" fill="#2aa198" stroke="rgb(0, 0, 0)" pointer-events="all"/></g></g><g data-cell-id="jF6yLMwPb9LCzAgC0iPM-25"><g><ellipse cx="18.5" cy="64" rx="3" ry="3" fill="#859900" stroke="rgb(0, 0, 0)" pointer-events="all"/></g></g><g data-cell-id="jF6yLMwPb9LCzAgC0iPM-26"><g><ellipse cx="73.5" cy="46" rx="3" ry="3" fill="#cb4b16" stroke="rgb(0, 0, 0)" pointer-events="all"/></g></g><g data-cell-id="jF6yLMwPb9LCzAgC0iPM-27"><g><ellipse cx="11.5" cy="32" rx="3" ry="3" fill="#cccccc" stroke="rgb(0, 0, 0)" pointer-events="all"/></g></g><g data-cell-id="jF6yLMwPb9LCzAgC0iPM-8"><g><ellipse cx="43.5" cy="41.5" rx="38.5" ry="38.5" fill="none" stroke="#333333" stroke-width="6" pointer-events="all"/></g></g></g></g></g></svg>